<?xml version="1.0" standalone="no"?>
<!DOCTYPE svg PUBLIC "-//W3C//DTD SVG 20010904//EN"
 "http://www.w3.org/TR/2001/REC-SVG-20010904/DTD/svg10.dtd">
<svg version="1.0" xmlns="http://www.w3.org/2000/svg"
 width="600.000000pt" height="600.000000pt" viewBox="0 0 600.000000 600.000000"
 preserveAspectRatio="xMidYMid meet">
<metadata>
Created by potrace 1.11, written by Peter Selinger 2001-2013
</metadata>
<g transform="translate(0.000000,600.000000) scale(0.100000,-0.100000)"
fill="#000000" stroke="none">
<path d="M2749 4786 c-2 -2 -58 -7 -123 -10 -66 -4 -122 -9 -125 -10 -4 -2
-40 -7 -81 -10 -101 -9 -307 -41 -465 -72 -865 -169 -1660 -530 -1889 -858
-58 -84 -66 -106 -66 -187 0 -88 15 -121 86 -193 85 -85 206 -158 427 -255
144 -64 516 -174 777 -231 80 -17 163 -35 185 -40 22 -5 54 -11 70 -14 17 -2
98 -16 180 -30 83 -14 170 -28 195 -31 25 -3 56 -8 70 -11 27 -6 194 -6 250 0
32 4 139 10 360 21 110 6 700 6 810 0 172 -9 417 -24 472 -29 20 -2 56 0 80 4
24 5 66 11 93 14 174 19 553 91 800 152 595 147 987 333 1111 525 24 37 29 55
29 109 0 105 -37 174 -159 295 -199 197 -570 395 -1051 561 -251 87 -720 204
-920 230 -16 2 -41 6 -55 8 -14 3 -45 8 -70 11 -25 3 -61 8 -80 10 -72 10
-193 24 -280 31 -79 7 -625 16 -631 10z m766 -749 c156 -11 321 -24 395 -32
30 -4 73 -8 95 -10 57 -6 215 -26 245 -31 14 -2 45 -6 70 -10 126 -15 466 -83
580 -114 240 -66 391 -131 472 -200 119 -103 66 -195 -169 -292 -141 -58 -503
-155 -684 -182 -20 -3 -42 -8 -50 -10 -19 -7 -459 -74 -539 -82 -36 -3 -68 -8
-71 -10 -4 -2 -10 22 -14 53 -4 32 -8 65 -10 74 -4 18 -7 88 -6 106 1 7 16 10
44 8 23 -2 92 -7 152 -10 130 -7 242 -14 305 -20 42 -4 44 -3 25 11 -11 9 -68
45 -127 80 -60 36 -108 69 -108 74 0 7 26 20 50 25 5 1 136 15 190 20 43 4
163 16 200 20 19 2 64 7 100 10 36 4 76 8 90 10 14 2 59 7 100 10 78 7 105 14
54 16 -16 0 -38 2 -48 4 -11 2 -54 6 -95 10 -42 3 -87 8 -101 10 -14 2 -59 6
-100 10 -41 4 -86 8 -100 10 -14 2 -54 6 -90 9 -36 4 -87 9 -115 12 -27 3 -59
7 -70 8 -31 3 -65 17 -65 25 0 8 30 28 173 115 42 26 77 49 77 52 0 2 -12 2
-27 0 -16 -3 -84 -8 -153 -11 -69 -4 -145 -9 -170 -10 -189 -12 -271 -17 -310
-21 -25 -2 -99 -5 -165 -5 -133 -1 -121 -4 -406 105 l-147 56 -198 -76 c-110
-41 -208 -78 -219 -80 -28 -7 -208 -7 -291 0 -38 3 -114 8 -169 11 -55 4 -122
8 -150 10 -27 2 -104 7 -170 10 -66 4 -129 9 -139 11 -49 9 -28 -13 66 -70
145 -88 148 -90 148 -98 0 -13 -53 -25 -149 -33 -36 -3 -82 -7 -101 -10 -19
-2 -69 -7 -110 -11 -41 -3 -82 -7 -90 -9 -8 -2 -51 -6 -95 -10 -44 -4 -92 -9
-106 -11 -15 -2 -57 -6 -95 -10 -38 -3 -70 -7 -72 -8 -1 -2 32 -7 75 -11 43
-4 89 -9 103 -10 14 -2 59 -6 100 -10 41 -4 86 -8 100 -11 14 -2 59 -6 100 -9
41 -3 86 -8 100 -10 14 -2 57 -7 95 -10 80 -7 145 -22 145 -33 0 -5 -54 -41
-120 -81 -118 -71 -143 -93 -97 -86 12 2 67 6 122 9 55 3 147 9 205 12 160 10
185 10 184 -1 -1 -5 -5 -46 -8 -91 -8 -91 -19 -140 -32 -138 -11 2 -91 12
-154 20 -59 7 -228 32 -260 39 -24 5 -84 14 -130 20 -14 2 -59 10 -100 19 -41
8 -88 18 -105 21 -16 3 -43 8 -60 11 -65 12 -315 77 -405 106 -196 62 -341
151 -353 216 -30 155 355 314 1028 423 72 11 144 23 160 25 17 2 53 6 80 10
63 8 85 11 165 19 36 4 79 8 95 10 17 2 71 6 120 10 50 4 101 9 115 10 14 2
84 6 155 10 72 4 131 9 133 10 5 5 828 -3 907 -8z"/>
<path d="M2638 2684 c-2 -1 -75 -5 -163 -8 -88 -4 -182 -9 -210 -11 -27 -2
-88 -7 -135 -10 -47 -4 -101 -8 -120 -10 -19 -2 -69 -6 -110 -10 -41 -4 -88
-9 -105 -11 -16 -2 -54 -6 -84 -10 -30 -3 -62 -7 -71 -9 -9 -2 -41 -6 -71 -10
-30 -3 -79 -10 -109 -15 -30 -5 -73 -12 -95 -16 -22 -3 -58 -9 -80 -14 -22 -5
-56 -12 -75 -15 -19 -3 -80 -17 -135 -30 -303 -73 -485 -168 -485 -254 0 -97
262 -201 735 -290 169 -32 214 -40 255 -46 105 -14 190 -30 190 -35 0 -13
-115 -196 -178 -285 -84 -118 -138 -182 -238 -282 l-82 -83 1721 0 1721 0 -68
68 c-142 139 -339 401 -419 558 l-16 32 57 7 c31 5 64 9 72 10 67 11 90 14
125 20 22 3 63 10 91 16 28 5 64 12 80 15 16 2 40 7 54 9 14 3 39 8 55 11 174
30 437 109 538 162 133 69 148 132 50 207 -89 68 -339 150 -608 200 -115 22
-274 47 -380 60 -71 8 -146 18 -165 20 -50 6 -217 22 -320 29 -323 24 -405 27
-822 30 -219 2 -399 2 -400 0z m807 -198 c819 -32 1422 -127 1448 -228 13 -49
-187 -107 -526 -154 -62 -8 -123 -17 -137 -19 -14 -3 -44 -8 -68 -11 l-42 -6
-30 65 c-16 35 -32 75 -35 88 -15 59 -31 67 -160 75 -66 4 -138 8 -160 9 -410
26 -1197 26 -1495 0 -25 -2 -88 -7 -140 -10 -119 -9 -140 -11 -143 -16 -2 -2
-22 -50 -46 -107 l-43 -102 -44 5 c-287 34 -578 91 -684 133 -14 5 -32 18 -40
27 -53 64 171 133 615 190 89 11 109 13 190 20 44 4 90 8 102 10 11 2 72 6
135 10 62 4 136 9 163 11 28 2 151 6 275 10 124 4 226 7 227 8 5 4 489 -3 638
-8z"/>
</g>
</svg>
